<svg xmlns="http://www.w3.org/2000/svg" viewBox="0 0 1138 310" fill="none">
  <!-- o -->
  <path d="M135 5C60.4 5 0 65.4 0 140v30c0 74.6 60.4 135 135 135s135-60.4 135-135v-30C270 65.4 209.6 5 135 5zm0 75c33.1 0 60 26.9 60 60v30c0 33.1-26.9 60-60 60s-60-26.9-60-60v-30c0-33.1 26.9-60 60-60z" fill="#1A1A1A"/>
  <!-- u -->
  <path d="M290 10h75v165c0 33.1 26.9 60 60 60s60-26.9 60-60V10h75v165c0 74.6-60.4 135-135 135S290 249.6 290 175V10z" fill="#1A1A1A"/>
  <!-- t -->
  <path d="M620 0h75v10h0v65h55v70h-55v160H620V145h-40V75h40V0z" fill="#1A1A1A"/>
  <!-- r -->
  <path d="M770 75h75v50c20-35 50-55 90-55h15v75h-15c-50 0-90 30-90 80v80h-75V75z" fill="#1A1A1A"/>
  <!-- a -->
  <path d="M1070 75h68v230h-68v-25c-25 20-55 30-90 30-74.6 0-135-60.4-135-135s60.4-135 135-135c35 0 65 10 90 30V75zm-90 70c-33.1 0-60 26.9-60 60s26.9 60 60 60 60-26.9 60-60-26.9-60-60-60z" fill="#1A1A1A"/>
  <!-- Blue dot -->
  <circle cx="1115" cy="285" r="23" fill="#4D61F4"/>
</svg>