<?xml version="1.0" encoding="UTF-8"?>
<svg width="961px" height="160px" viewBox="0 0 961 160" version="1.1" xmlns="http://www.w3.org/2000/svg" xmlns:xlink="http://www.w3.org/1999/xlink">
    <!-- Generator: Sketch 64 (93537) - https://sketch.com -->
    <title>happybeds-new-logo</title>
    <desc>Created with Sketch.</desc>
    <g id="Page-1" stroke="none" stroke-width="1" fill="
    #2B2D52" fill-rule="evenodd">
        <g id="happybeds-new-logo" fill="" fill-rule="nonzero">
            <path d="M181.82,118.45 C168,118.45 156.76,107 156.76,92.92 C156.76,78.84 168,67.39 181.82,67.39 C195.64,67.39 206.88,78.84 206.88,92.92 C206.88,107 195.64,118.45 181.82,118.45 M206.88,60.61 C199.98,55.05 191.28,51.7 181.82,51.7 C159.5,51.7 141.34,70.19 141.34,92.93 C141.34,115.67 159.5,134.16 181.82,134.16 C191.29,134.16 199.98,130.81 206.88,125.24 L206.88,132.59 L222.3,132.59 L222.3,54.22 L206.88,54.22 L206.88,60.61 L206.88,60.61 Z" id="Shape"></path>
            <path d="M278.22,118.45 C264.4,118.45 253.16,107 253.16,92.92 C253.16,78.84 264.4,67.39 278.22,67.39 C292.04,67.39 303.28,78.84 303.28,92.92 C303.28,107 292.04,118.45 278.22,118.45 M278.22,51.69 C268.75,51.69 260.06,55.04 253.16,60.61 L253.16,54.22 L237.74,54.22 L237.74,157.7 L253.16,157.7 L253.16,125.24 C260.06,130.8 268.76,134.16 278.22,134.16 C300.54,134.16 318.7,115.66 318.7,92.93 C318.7,70.2 300.54,51.7 278.22,51.7" id="Shape"></path>
            <path d="M371.2,118.45 C357.38,118.45 346.14,107 346.14,92.92 C346.14,78.84 357.38,67.39 371.2,67.39 C385.02,67.39 396.26,78.84 396.26,92.92 C396.26,107 385.02,118.45 371.2,118.45 M371.2,51.69 C361.73,51.69 353.04,55.04 346.14,60.61 L346.14,54.22 L330.72,54.22 L330.72,157.7 L346.14,157.7 L346.14,125.24 C353.04,130.8 361.74,134.16 371.2,134.16 C393.52,134.16 411.68,115.66 411.68,92.93 C411.68,70.2 393.52,51.7 371.2,51.7" id="Shape"></path>
            <polygon id="Path" points="918.04 51.23 918.04 56.11 923.25 56.11 923.25 71.48 928.23 71.48 928.23 56.11 933.47 56.11 933.44 51.23"></polygon>
            <polygon id="Path" points="957.23 51.23 952.77 51.23 947.98 62.07 943.21 51.23 938.8 51.23 935.55 71.48 940.61 71.48 942.3 60.85 946.97 71.2 949.03 71.2 953.68 60.86 955.35 71.48 960.42 71.48"></polygon>
            <path d="M681.11,85.06 C684.36,74.8 693.83,67.35 704.97,67.35 C716.11,67.35 725.56,74.78 728.82,85.03 L681.11,85.06 Z M704.97,51.65 C682.65,51.65 664.49,70.15 664.49,92.88 C664.49,115.61 682.65,134.11 704.97,134.11 C717.64,134.11 729.34,128.24 737.07,118 L724.85,108.42 C720.06,114.76 712.81,118.4 704.97,118.4 C693.85,118.4 684.4,110.99 681.13,100.76 L745.45,100.72 L745.45,92.87 C745.45,70.14 727.29,51.64 704.97,51.64" id="Shape"></path>
            <path d="M794.8,118.4 C780.98,118.4 769.74,106.95 769.74,92.87 C769.74,78.79 780.98,67.34 794.8,67.34 C808.62,67.34 819.86,78.79 819.86,92.87 C819.86,106.95 808.62,118.4 794.8,118.4 M819.86,60.56 C812.96,55 804.26,51.65 794.8,51.65 C772.48,51.65 754.32,70.14 754.32,92.88 C754.32,115.62 772.48,134.11 794.8,134.11 C804.27,134.11 812.96,130.76 819.86,125.2 L819.86,132.59 L835.28,132.59 L835.28,29.3 L819.86,29.3 L819.86,60.56 Z" id="Shape"></path>
            <path d="M614.98,118.45 C601.16,118.45 589.92,107 589.92,92.92 C589.92,78.84 601.16,67.39 614.98,67.39 C628.8,67.39 640.04,78.84 640.04,92.92 C640.04,107 628.8,118.45 614.98,118.45 M590.76,26.14 C591.56,16.65 593.72,16.65 594.53,16.65 C595.9,16.65 598.2,16.65 598.65,29.29 C598.63,38.64 596.63,49.48 589.88,59.34 L589.88,56.81 C589.85,45.91 589.82,37.3 590.76,26.15 M614.98,51.7 C613.47,51.7 611.98,51.8 610.51,51.97 C612.85,44.91 614.07,37.28 614.07,29.17 L614.07,28.89 C613.83,21.98 613.1,0.96 594.53,0.96 C586.71,0.96 577.05,5.1 575.4,24.82 C574.41,36.66 574.43,45.58 574.46,56.86 L574.46,74 C569.03,77.48 562.43,80.53 554.45,82.95 L558.86,98 C564.45,96.3 569.66,94.24 574.47,91.83 L574.47,132.6 L589.89,132.6 L589.89,125.23 C596.8,130.81 605.5,134.17 614.98,134.17 C637.3,134.17 655.46,115.67 655.46,92.94 C655.46,70.21 637.3,51.71 614.98,51.71" id="Shape"></path>
            <path d="M879.33,85.28 C866.53,82.29 863.94,80.6 863.94,75.27 C863.94,69.38 869.87,67.58 872.41,67.08 C879.49,65.69 888.34,68.53 891.54,76.66 L905.85,70.82 C899.54,54.79 882.79,49.06 869.49,51.67 C856.75,54.17 848.52,63.44 848.52,75.28 C848.52,94.19 864.98,98.04 875.87,100.59 C888.44,103.53 890.98,105.15 890.98,110.21 C890.98,115.79 885.67,117.78 882.5,118.47 C874.02,120.3 862.69,116.91 858.36,107.02 L844.28,113.41 C850.64,127.96 865.2,134.61 878.2,134.61 C880.79,134.61 883.31,134.35 885.7,133.83 C898.26,131.11 906.38,121.84 906.38,110.22 C906.38,91.63 890.09,87.82 879.3,85.3" id="Path"></path>
            <path d="M122.29,18.78 C123.34,17.33 124.07,16.87 124.55,16.74 C127.45,20.91 129.72,40.39 118.68,58.92 C117.57,60.79 116.37,62.57 115.08,64.25 C113.95,43.94 116.75,26.4 122.29,18.77 M120,81.9 C139.77,63.22 145.46,34.13 140.78,16.24 C137.88,5.17 131.91,2.21 128.61,1.44 C124.49,0.47 116.59,0.22 109.89,9.43 C102.26,19.93 98.47,40.7 99.74,65 C99.95,69.07 100.3,73.11 100.77,77.11 C85.45,86.44 64.32,88.77 38.53,84.03 L38.53,11.43 L23.11,11.43 L23.11,80.51 C17.51,78.99 11.74,77.2 5.78,75.09 L0.71,89.92 C8.62,92.73 16.07,94.99 23.11,96.77 L23.11,132.76 L38.53,132.76 L38.53,100.03 C67.83,104.96 88.71,100.81 103.45,93.45 C106.74,109 112,123.46 118.91,135.66 L132.27,127.82 C124.87,114.74 120.05,99.38 117.39,84.27 C118.3,83.49 119.17,82.71 120,81.92" id="Shape"></path>
            <path d="M494.84,97.54 L494.8,54.06 L479.38,54.06 L479.38,98.82 C479.09,103.86 477.02,108.55 473.49,112.15 C469.67,116.05 464.58,118.2 459.16,118.2 C447.99,118.2 438.91,108.95 438.91,97.58 L438.91,54.07 L423.49,54.07 L423.49,97.58 C423.49,117.61 439.49,133.91 459.15,133.91 C466.26,133.91 473.06,131.81 478.85,127.88 C478.16,132.72 476.63,137.68 473.31,140.58 C469.92,143.54 464.49,144.42 457.18,143.19 L454.66,158.68 C457.63,159.18 460.46,159.43 463.13,159.43 C471.29,159.43 478.07,157.11 483.35,152.48 C495.12,142.18 494.89,124.13 494.79,116.42 C494.79,115.78 494.77,115.21 494.78,114.69 L494.78,99.23 C494.8,98.67 494.82,98.11 494.82,97.54" id="Path"></path>
        </g>
    </g>
</svg>
