<svg width="288" height="30" viewBox="0 0 288 30" fill="none" xmlns="http://www.w3.org/2000/svg">
<path d="M19.1042 16.5212L20.8964 19.7686C21.7837 18.6754 22.3367 17.37 22.515 15.9767L19.1047 16.5212H19.1042ZM16.5018 19.1008L15.9631 22.5176C17.3627 22.3409 18.6734 21.7863 19.7709 20.8952L16.5018 19.1008ZM13.4814 19.1008L10.2293 20.8963C11.3236 21.7848 12.6301 22.3377 14.0249 22.5161L13.4814 19.1008ZM10.8987 16.4974L7.48146 15.9608C7.65767 17.361 8.21221 18.6728 9.10382 19.7708L10.8987 16.4968V16.4974ZM10.9029 13.4838L9.10964 10.2215C8.21698 11.3179 7.6619 12.6287 7.48358 14.0272L10.9029 13.4838ZM13.4936 10.8999L14.0328 7.48361C12.6338 7.66088 11.3225 8.21544 10.2251 9.10761L13.4936 10.9004V10.8999ZM16.5267 10.9062L19.7756 9.1092C18.6814 8.21915 17.3744 7.66512 15.979 7.48573L16.5267 10.9068V10.9062ZM12.5078 13.9659L14.9996 15.0004L13.9757 12.5175L9.50386 9.50448L12.5083 13.9659H12.5078ZM13.964 17.4927L14.9996 15.0004L12.5142 16.0269L9.50386 20.4962L13.9646 17.4922L13.964 17.4927ZM17.4961 16.0412L14.9996 15.0004L16.024 17.4843L20.4953 20.4968L17.4961 16.0412ZM17.4855 13.9727L20.4953 9.50448L16.034 12.5085L14.9996 15.0004L17.4855 13.9727ZM19.0957 13.5034L22.5171 14.0405C22.3409 12.6414 21.7875 11.3296 20.8964 10.2321L19.0957 13.5034ZM28.6351 15.0004L22.9029 15.9153C22.7262 17.4689 22.1012 18.9204 21.09 20.1195L22.2769 22.2711L20.1217 21.0879C18.919 22.1033 17.4617 22.7304 15.9023 22.9055L14.999 28.6369L14.0868 22.9039C12.5322 22.7272 11.0791 22.1023 9.87902 21.09L7.73016 22.2763L8.91174 20.1211C7.87409 18.8892 7.27033 17.416 7.09889 15.901L1.36348 15.0004L7.10101 14.0881C7.27404 12.5742 7.87938 11.1031 8.91809 9.87278L7.75133 7.74978L9.87585 8.915C11.1066 7.87678 12.5787 7.27248 14.0937 7.1005L14.999 1.36332L15.9182 7.10262C17.4289 7.27671 18.8962 7.88049 20.1243 8.91606L22.2774 7.72491L21.0906 9.88072C22.1055 11.084 22.7309 12.5413 22.9055 14.1008L28.6357 15.0004H28.6351ZM28.3891 11.1063L27.1874 9.90453V2.81217L20.0942 2.81111L18.893 1.60991C16.7463 -0.536901 13.2534 -0.536372 11.1072 1.60991L9.90495 2.81164H2.81069L2.81175 9.90506L1.61006 11.1073C-0.536686 13.2536 -0.536686 16.7466 1.61006 18.8934L2.81122 20.0946L2.81228 27.188H9.90442L11.1066 28.3898C12.1797 29.4629 13.5894 30 14.9996 30C16.4092 30 17.8199 29.4634 18.893 28.3898L20.0947 27.1875L27.1879 27.1886V20.0946L28.3901 18.8924C30.5369 16.7455 30.5364 13.2525 28.3901 11.1063" fill="#0438B0"/>
<g clip-path="url(#clip0_3458_7009)">
<path d="M43 28.3901V1.64937C43 1.57286 43.0372 1.53564 43.1137 1.53564H55.0925C57.7248 1.53564 63.2168 2.87144 63.2168 10.0426C63.2168 13.0946 61.424 15.6504 58.7152 16.6409C59.1722 17.4804 61.9203 22.6685 63.5229 25.7971C64.1329 27.0171 64.5919 27.7036 64.9724 28.1999C65.1254 28.3901 65.0861 28.5059 64.8959 28.5059H58.8682C58.7545 28.5059 58.678 28.4294 58.6015 28.2764L53.9469 18.2827H47.9958V28.3922C47.9958 28.4687 47.9565 28.5059 47.8821 28.5059H43.1137C43.0372 28.5059 43 28.4687 43 28.3922V28.3901ZM53.8332 13.2456C56.4655 13.2456 58.1445 12.1393 58.1445 9.77374C58.1445 8.28699 57.3815 6.14889 54.6355 6.14889H48.0744V13.2435H53.8352L53.8332 13.2456Z" fill="#0438B0"/>
<path d="M67.8032 28.3508L79.2463 1.64937C79.2836 1.57286 79.3228 1.53564 79.3994 1.53564H83.3282C83.4047 1.53564 83.4419 1.57286 83.4812 1.64937L94.3536 28.3529C94.3909 28.4294 94.3144 28.5059 94.2399 28.5059H88.9753C88.8616 28.5059 88.7851 28.4294 88.7458 28.3156L85.884 21.0287H76.3101L73.2973 28.3529C73.2601 28.4666 73.1836 28.5059 73.0305 28.5059H67.919C67.8052 28.5059 67.7659 28.4294 67.8052 28.3529L67.8032 28.3508ZM84.207 16.5602L81.2707 8.89286L78.0656 16.5602H84.207Z" fill="#0438B0"/>
<path d="M102.796 28.3901V6.56866H94.2523C94.1758 6.56866 94.1386 6.53143 94.1386 6.45493V1.64937C94.1386 1.57286 94.1758 1.53564 94.2523 1.53564H116.607C116.684 1.53564 116.721 1.57286 116.721 1.64937V6.45699C116.721 6.5335 116.682 6.57072 116.607 6.57072H108.024V28.3901C108.024 28.4666 107.987 28.5038 107.91 28.5038H102.912C102.836 28.5038 102.799 28.4666 102.799 28.3901H102.796Z" fill="#0438B0"/>
<path d="M122.455 28.3901V1.64937C122.455 1.57286 122.492 1.53564 122.569 1.53564H127.567C127.643 1.53564 127.681 1.57286 127.681 1.64937V12.8258H140.422V1.64937C140.422 1.57286 140.46 1.53564 140.536 1.53564H145.534C145.61 1.53564 145.648 1.57286 145.648 1.64937V28.3901C145.648 28.4666 145.61 28.5038 145.534 28.5038H140.536C140.46 28.5038 140.422 28.4666 140.422 28.3901V17.8237H127.681V28.3901C127.681 28.4666 127.643 28.5038 127.567 28.5038H122.569C122.492 28.5038 122.455 28.4666 122.455 28.3901Z" fill="#0438B0"/>
<path d="M154.31 28.3901V1.64937C154.31 1.57286 154.347 1.53564 154.424 1.53564H163.923C169.988 1.53564 172.124 4.85445 172.124 8.9735C172.124 11.643 170.98 13.3614 169.339 14.5421C171.665 15.4188 173.573 17.8981 173.573 20.4167C173.573 24.728 171.247 28.5038 165.486 28.5038H154.424C154.347 28.5038 154.31 28.4666 154.31 28.3901ZM163.54 12.4453C165.219 12.4453 167.242 11.5686 167.242 9.20302C167.242 7.10421 165.563 6.15096 163.54 6.15096H159.192V12.4453H163.54ZM164.684 24.0415C167.087 24.0415 168.499 22.4783 168.499 20.456C168.499 18.4337 166.82 17.0234 163.96 17.0234H159.192V24.0415H164.686H164.684Z" fill="#0438B0"/>
<path d="M178.974 15.1148C178.974 6.37833 185.918 1 193.202 1C200.487 1 207.431 6.37833 207.431 15.1148C207.431 22.1721 201.517 29 193.202 29C184.888 29 178.974 22.1721 178.974 15.1148ZM193.202 24.3454C198.467 24.3454 201.823 20.034 201.823 15.1148C201.823 9.65992 198.657 5.73111 193.202 5.73111C187.748 5.73111 184.582 9.65992 184.582 15.1148C184.582 20.0361 187.938 24.3454 193.202 24.3454Z" fill="#0438B0"/>
<path d="M213.823 28.3901V1.64937C213.823 1.57286 213.86 1.53564 213.936 1.53564H219.238C219.315 1.53564 219.373 1.57286 219.428 1.64937L232.437 20.2657V1.64937C232.437 1.57286 232.474 1.53564 232.551 1.53564H237.089C237.166 1.53564 237.203 1.57286 237.203 1.64937V28.3901C237.203 28.4666 237.166 28.5038 237.089 28.5038H232.321C232.207 28.5038 232.131 28.4666 232.054 28.3508L218.589 9.43048V28.3901C218.589 28.4666 218.552 28.5038 218.475 28.5038H213.936C213.86 28.5038 213.823 28.4666 213.823 28.3901Z" fill="#0438B0"/>
<path d="M245.867 28.3901V1.64937C245.867 1.57286 245.905 1.53564 245.981 1.53564H263.185C263.262 1.53564 263.299 1.57286 263.299 1.64937V6.41771C263.299 6.49422 263.262 6.53144 263.185 6.53144H251.093V12.8258H260.553C260.629 12.8258 260.667 12.863 260.667 12.9395V17.7079C260.667 17.7844 260.629 17.8216 260.553 17.8216H251.093V23.5432H263.758C263.835 23.5432 263.872 23.5804 263.872 23.6569V28.388C263.872 28.4645 263.835 28.5017 263.758 28.5017H245.981C245.905 28.5017 245.867 28.4645 245.867 28.388V28.3901Z" fill="#0438B0"/>
<path d="M269.431 24.3454C269.355 24.211 269.413 24.1159 269.489 24.0394L272.446 21.0824C272.599 20.9294 272.694 20.948 272.866 21.1961C274.258 23.3136 276.565 24.3433 279.026 24.3433C281.487 24.3433 282.535 22.8566 282.535 21.3306C282.535 19.6908 281.466 18.202 278.377 17.0957C273.379 15.3402 270.403 13.0511 270.403 8.43579C270.403 3.82047 273.799 1 278.263 1C282.727 1 285.207 3.05952 286.846 5.27206C286.884 5.30928 286.884 5.38579 286.846 5.42508L283.794 8.40064C283.736 8.45853 283.681 8.43786 283.641 8.40064C282.345 6.83738 280.531 5.73111 278.416 5.73111C276.47 5.73111 275.403 6.9904 275.403 8.78318C275.403 10.4229 276.89 11.3018 279.905 12.2922C284.673 13.8555 287.419 16.7938 287.419 20.8363C287.419 24.8789 284.75 29 278.416 29C273.724 29 270.749 26.5786 269.431 24.3454Z" fill="#0438B0"/>
</g>
<defs>
<clipPath id="clip0_3458_7009">
<rect width="244.419" height="28" fill="white" transform="translate(43 1)"/>
</clipPath>
</defs>
</svg>
