<svg width="904" height="905" xmlns="http://www.w3.org/2000/svg" xmlns:xlink="http://www.w3.org/1999/xlink" xml:space="preserve" overflow="hidden"><defs><clipPath id="clip0"><rect x="807" y="609" width="903" height="904"/></clipPath><clipPath id="clip1"><rect x="807" y="609" width="903" height="904"/></clipPath><clipPath id="clip2"><rect x="807" y="609" width="903" height="904"/></clipPath></defs><g transform="translate(-806 -608)"><g><g clip-path="url(#clip0)"><g clip-path="url(#clip1)"><g clip-path="url(#clip2)"><path d="M271.171 126.366C21.7841 126.366-180.329 328.479-180.329 577.866-180.329 827.253 21.7841 1029.37 271.171 1029.37 520.558 1029.37 722.671 827.162 722.671 577.866 722.671 328.569 520.468 126.366 271.171 126.366ZM270.99 182.046C489.916 182.046 667.352 359.483 667.352 578.408 667.352 797.334 489.916 974.77 270.99 974.77 52.0649 974.77-125.371 797.243-125.371 578.408-125.371 359.573 52.0649 182.046 270.99 182.046Z" fill="#5514B4" fill-rule="nonzero" fill-opacity="1" transform="matrix(1 0 0 1.00111 987.329 482.458)"/><path d="M46.0991 423.569 46.0991 730.987 171.199 730.987C228.055 730.987 271.714 695.464 271.714 639.241 271.714 589.707 233.026 570.725 233.026 570.725 233.026 570.725 262.765 551.743 262.765 509.621 262.765 460.629 224.078 423.569 167.041 423.569L46.0991 423.569ZM115.338 483.589 152.308 483.589C178.611 483.589 190.001 497.057 190.001 513.779 190.001 531.857 176.984 543.337 154.025 543.337L115.338 543.337 115.338 483.589ZM115.338 604.893 152.308 604.893C178.611 604.893 190.001 618.361 190.001 635.083 190.001 653.161 176.984 664.641 154.025 664.641L115.338 664.641 115.338 604.893Z" fill="#5514B4" fill-rule="nonzero" fill-opacity="1" transform="matrix(1 0 0 1.00111 987.329 482.458)"/><path d="M364.544 729.993 364.544 494.074 295.396 494.074 295.396 423.027 510.525 423.027 510.525 494.074 438.393 494.074 438.393 729.993 364.544 729.993Z" fill="#5514B4" fill-rule="nonzero" fill-opacity="1" transform="matrix(1 0 0 1.00111 987.329 482.458)"/></g></g></g></g></g></svg>